<svg width="15" height="14" viewBox="0 0 15 14" fill="none" xmlns="http://www.w3.org/2000/svg">
<path d="M4.3374 2.91664C4.33724 3.22606 4.20538 3.52274 3.97084 3.74143C3.73631 3.96011 3.4183 4.08288 3.08678 4.08272C2.75526 4.08257 2.43738 3.9595 2.20308 3.7406C1.96877 3.5217 1.83724 3.22489 1.8374 2.91547C1.83757 2.60605 1.96942 2.30937 2.20396 2.09069C2.4385 1.872 2.75651 1.74924 3.08803 1.74939C3.41955 1.74954 3.73742 1.87261 3.97173 2.09151C4.20603 2.31041 4.33757 2.60722 4.3374 2.91664ZM4.3749 4.94664H1.8749V12.25H4.3749V4.94664ZM8.3249 4.94664H5.8374V12.25H8.2999V8.41747C8.2999 6.28247 11.2812 6.08414 11.2812 8.41747V12.25H13.7499V7.62414C13.7499 4.02497 9.3374 4.15914 8.2999 5.92664L8.3249 4.94664Z" fill="black"/>
</svg>
